<svg xmlns="http://www.w3.org/2000/svg" width="1820" height="1820" version="1" viewBox="0 0 1365 1365"><path d="M231.5.6c-1.6.2-7.3.9-12.5 1.5-70.6 8-137.6 49.7-177.6 110.4-21 31.8-32.5 62.7-39.6 105.5C.2 227.9-.6 504 1 504c.5 0 1 .9 1 2s-.5 2-1 2c-.7 0-.9 102.4-.7 316.2.3 346.6-.2 317.7 5.8 345.6 5.7 26.3 19.3 58.4 34.6 81.7 11.3 17.1 18.8 26.2 33.7 41 38.3 38.1 85.4 61.6 140.6 70.2 10.9 1.7 33.8 1.8 467.5 1.8s456.6-.1 467.5-1.8c55.8-8.7 102.7-32.3 141.6-71.1 38.8-38.9 62.4-85.8 71.1-141.6 1.7-10.9 1.8-33.8 1.8-467.5s-.1-456.6-1.8-467.5c-9.6-61.8-39-115.1-85.2-154.8-29.9-25.7-70.8-46.2-108-54.2C1141.8.1 1182.5.6 687 .4 438.1.3 233.2.4 231.5.6zm785.9 55.1c-.5.5-1.2 1.2-1.6 1.8-.4.6-.8.2-.8-.8 0-.9.7-1.7 1.7-1.7.9 0 1.2.3.7.7zM982 119.1c-1.1.8-1.2 1.2-.2 1.6 2.2.9 1.3 3.3-1.3 3.3-1.4 0-2.5-.5-2.5-1 0-.6.4-1 .9-1s1.1-.9 1.4-2c.3-1.1 1.1-2 1.9-2 1 0 .9.3-.2 1.1zm202.5 16.8c-.7 3.3-1.9 4-2.8 1.7-.5-1.3 2.3-5.9 3.1-5.1.2.2.1 1.7-.3 3.4zM1202 171c0 .5-.4 1-1 1-.5 0-1-.5-1-1 0-.6.5-1 1-1 .6 0 1 .4 1 1zm-70 8.5c0 2.1-.5 2.5-3 2.5-3.6 0-4-1.7-.5-2.6 1.4-.3 2.5-1 2.5-1.5s.2-.9.5-.9.5 1.1.5 2.5zm-81 24c0 .8-3.4 4.5-4.2 4.5-.5 0-.8-.7-.8-1.5s-.4-1.5-1-1.5c-.5 0-1-.5-1-1 0-.6 1.6-1 3.5-1s3.5.2 3.5.5zm-129.1 9.3c-.5.2-.9 1.3-.9 2.4 0 1.7-.2 1.8-1.5.4-1.8-1.8-1.9-2.3-.3-4 .9-.9 1.6-1 2.4-.2.7.6.8 1.2.3 1.4zM185 239c0 .5-.4 1-1 1-.5 0-1-.5-1-1 0-.6.5-1 1-1 .6 0 1 .4 1 1zm757 15.5c0 .8-.9 1.5-2 1.5s-2-.7-2-1.5.9-1.5 2-1.5 2 .7 2 1.5zM930 517c0 143-.2 260-.5 260-.2 0-12-9.6-26.1-21.3-32.4-26.8-37-30.5-36-28.9.8 1.4-.1 5.2-1.4 5.2-1.3 0-2.4-6.4-1.2-6.8.6-.2-5.6-6-13.8-12.8l-15-12.5-.2-136.8-.3-136.7-135 144.4c-74.2 79.4-136.7 145.9-138.9 147.9-3.5 3.2-4.3 3.5-8.7 3.1-3.1-.3-6.3-1.5-9-3.3-6.9-4.9-156.2-160.3-271.9-283.2l-12.5-13.2-.3 344.4-.2 344.5-48.8-.2-48.7-.3-.3-421.8L161 267l51.2.1h51.3l4.6 5.2c5.7 6.5 280.5 312.5 282.9 315 1.6 1.8 2.3 1.1 15.7-14 7.7-8.7 16-18.1 18.4-21 2.4-2.9 62.1-70.5 132.7-150.3l128.4-145H930v260zm279 167v427h-95.5l-40.5-33.3c-22.3-18.3-90.9-74.6-152.5-125.1-61.6-50.6-112.7-92.5-113.5-93.2-1.4-1.2-22.7 16.1-154.5 125.1l-153 126.5H402V644.7l7.7 7.4c4.3 4.1 24.8 24 45.5 44.3l37.8 36.9v123.5c0 75.4.4 123.2.9 123 .5-.1 67.4-53.2 148.5-117.8 81.2-64.6 149.3-118.3 151.3-119.2 4.7-2.2 14.1-2.3 18.9-.3 1.9.8 20.4 14.9 41.2 31.4 20.7 16.5 87.4 69.6 148.2 118l110.5 88 .3-361.5.2-361.4h96v427zM998.3 303.2c.4 1 .8.9 1.7-.2.8-1.2 1-.8.8 1.9-.3 3.4-2.8 5.8-2.8 2.7 0-.9-.4-1.6-1-1.6-.5 0-1-.9-1-2 0-2.2 1.5-2.7 2.3-.8zm280.7 3.9c0 1.1-2.4 3.9-3.4 3.9s-.6-2 .7-3.5c1.5-1.7 2.7-1.9 2.7-.4zm-829.3 11.1c-.3.8-.6.5-.6-.6-.1-1.1.2-1.7.5-1.3.3.3.4 1.2.1 1.9zM266.8 445.7c1.2 1.2 1.3 1.8.4 2.1-.6.2-1.2 1-1.2 1.8s-.4 1.4-1 1.4c-.5 0-1-.7-1-1.5 0-1.8-2.6-2-3.3-.3-.3.7-.6.3-.6-1-.1-1.6.5-2.2 1.9-2.2 1.1 0 2-.5 2-1 0-1.4.9-1.2 2.8.7zm21.2 63.8c0 .8-.4 1.5-1 1.5-.5 0-1-.7-1-1.5s.5-1.5 1-1.5c.6 0 1 .7 1 1.5zm662 20.4c0 .5-.7 1.2-1.6 1.5-2.2.9-2.4.8-2.4-.9 0-.8.9-1.5 2-1.5s2 .4 2 .9zm133 89.6c0 .8-.4 1.5-1 1.5-.5 0-1-.7-1-1.5s.5-1.5 1-1.5c.6 0 1 .7 1 1.5zm-103.3 57.1c-.3.3-1.2.4-1.9.1-.8-.3-.5-.6.6-.6 1.1-.1 1.7.2 1.3.5zm239.3 1.9c0 1.4-.4 2.5-1 2.5-.5 0-1-.9-1-1.9 0-1.1-.6-2.2-1.2-2.4-.7-.3-.3-.6 1-.6 1.7-.1 2.2.5 2.2 2.4zm-248 44c0 .8-.7 1.5-1.5 1.5-2.6 0-1.8-2 1.3-2.9.1-.1.2.6.2 1.4zm-113 25c0 1.6-.6 2.5-1.5 2.5s-1.5-.9-1.5-2.5.6-2.5 1.5-2.5 1.5.9 1.5 2.5zm-481.3 84.7c-.3.7-.5.2-.5-1.2s.2-1.9.5-1.3c.2.7.2 1.9 0 2.5zM1259 870c0 .5-.4 1-1 1-.5 0-1-.5-1-1 0-.6.5-1 1-1 .6 0 1 .4 1 1zm-898 53.5c0 .8-.4 1.5-1 1.5-.5 0-1-.7-1-1.5s.5-1.5 1-1.5c.6 0 1 .7 1 1.5zm476.4 21.1c2.3.9 2 2.4-.4 2.4-1.1 0-2-.7-2-1.5 0-1.7.2-1.8 2.4-.9zM958 1059c0 1.1-.7 2-1.5 2s-1.5-.9-1.5-2 .7-2 1.5-2 1.5.9 1.5 2zm-312 .9c0 .5-.7 1.1-1.5 1.5-.9.3-1.5 0-1.5-.9 0-.8.7-1.5 1.5-1.5s1.5.4 1.5.9zm151 19.6c0 1.4-.4 2.5-1 2.5-.5 0-1-.5-1-1 0-.6-.7-1-1.5-1s-1.5-.7-1.5-1.5c0-.9.9-1.5 2.5-1.5 2 0 2.5.5 2.5 2.5zm-41 41.5c0 .5-.4 1-1 1-.5 0-1-.5-1-1 0-.6.5-1 1-1 .6 0 1 .4 1 1zm-731 33c0 .5-.7 1-1.5 1s-1.5-.5-1.5-1c0-.6.7-1 1.5-1s1.5.4 1.5 1zm842 9c0 1.1-.4 2-1 2-.5 0-1-.9-1-2s.5-2 1-2c.6 0 1 .9 1 2zm-311 23.7c0 .5-.5 1.5-1 2.3-.9 1.3-1.1 1.3-2 0-1.5-2.2-1.2-3 1-3 1.1 0 2 .3 2 .7zM444 1211c0 1.5-.7 2-2.5 2-1.4 0-2.5-.5-2.5-1 0-.6.7-1 1.5-1s1.5-.5 1.5-1c0-.6.5-1 1-1 .6 0 1 .9 1 2zm3-1c0 .5-.4 1-1 1-.5 0-1-.5-1-1 0-.6.5-1 1-1 .6 0 1 .4 1 1zm-43.7 5.7c-.7.2-2.1.2-3 0-1-.3-.4-.5 1.2-.5 1.7 0 2.4.2 1.8.5zm327.7 8.8c0 .9-.9 1.5-2.4 1.5-1.3 0-2.6.6-2.9 1.2-.2.8-.8.9-1.3.4s-.4-1.1.4-1.3c.6-.3 1.2-1.1 1.2-1.9 0-.8 1-1.4 2.5-1.4 1.6 0 2.5.6 2.5 1.5z"/></svg>